# xmcd
#
# Track frame offsets:
# 150
# 15017
# 27467
# 43922
# 56232
# 67530
# 84457
# 98815
# 110595
# 127310
# 142117
# 153292
# 170137
#
# Disc length: 2478 seconds
#
#
# Revision: 0
# Processed by: cddbd v1.5.2PL0 Copyright (c) Steve Scherf et al.
# Submitted via: FreeRIP 2.941 
#
DISCID=b009ac0d
DTITLE=DENNER and DANIEL - CORAÇÃO FERIDO
DYEAR=2005
DGENRE=SERTANEJO
TTITLE0=CORAÇÃO FERIDO
TTITLE1=O SANFONEIRO
TTITLE2=VOLTA PRA CASA
TTITLE3=BARRACA ARMADA
TTITLE4=BAILE DE ARRASTA-PÉ
TTITLE5=EU NÃO POSSO ACEITAR
TTITLE6=PODE SEPARAR QUE É BRIGA
TTITLE7=VIOLA E VIOLÃO
TTITLE8=VAMOS RECOMEÇAR
TTITLE9=O FILHO É MEU
TTITLE10=MULHER É IGUAL FURACÃO
TTITLE11=VOU DAR AS CARTAS
TTITLE12=MULHER AMADA
EXTD=A DUPLA DO  - DNA.
EXTT0=
EXTT1=
EXTT2=
EXTT3=
EXTT4=
EXTT5=
EXTT6=
EXTT7=
EXTT8=
EXTT9=
EXTT10=
EXTT11=
EXTT12=
PLAYORDER=
